<svg width="32" height="32" viewBox="0 0 32 32" fill="none" xmlns="http://www.w3.org/2000/svg">
<path d="M22.6667 14.6667H26.6667C28.1467 14.6667 29.3334 13.4667 29.3334 12V6.66667C29.3334 5.18667 28.1334 4 26.6667 4H22.6667C21.1867 4 20 5.2 20 6.66667V8H12.0134V6.66667C12.0134 5.18667 10.8134 4 9.34669 4H5.33335C3.86669 4 2.66669 5.2 2.66669 6.66667V12C2.66669 13.48 3.86669 14.6667 5.33335 14.6667H9.33335C10.8134 14.6667 12 13.4667 12 12V10.6667H14.6667V20.0133C14.6667 22.2133 16.4534 24 18.6534 24H20V25.3333C20 26.8133 21.2 28 22.6667 28H26.6667C28.1467 28 29.3334 26.8 29.3334 25.3333V20C29.3334 18.52 28.1334 17.3333 26.6667 17.3333H22.6667C21.1867 17.3333 20 18.5333 20 20V21.3333H18.6534C17.9334 21.3333 17.3334 20.7333 17.3334 20.0133V10.6667H20V12C20 13.4667 21.2 14.6667 22.6667 14.6667Z" fill="#79BF5F"/>
</svg>
