<svg width="32" height="32" viewBox="0 0 32 32" fill="none" xmlns="http://www.w3.org/2000/svg">
<path d="M25.4375 22.3125C23.4559 22.3125 21.8438 20.7004 21.8438 18.7188C21.8438 16.7371 23.4559 15.125 25.4375 15.125C27.4191 15.125 29.0312 16.7371 29.0312 18.7188C29.0312 20.7004 27.4191 22.3125 25.4375 22.3125Z" fill="#FF8B17"/>
<path d="M6.5625 22.3125C4.58088 22.3125 2.96875 20.7004 2.96875 18.7188C2.96875 16.7371 4.58088 15.125 6.5625 15.125C8.54413 15.125 10.1562 16.7371 10.1562 18.7188C10.1562 20.7004 8.54413 22.3125 6.5625 22.3125Z" fill="#FF8B17"/>
<path d="M22.25 2.5C21.0653 2.5 20.0003 1.84175 19.4705 0.78225L19.3386 0.518313C19.1797 0.200625 18.8551 0 18.5 0H13.5C13.1449 0 12.8202 0.200625 12.6614 0.51825L12.5295 0.782125C11.9998 1.84175 10.9347 2.5 9.75 2.5C9.23225 2.5 8.8125 2.91975 8.8125 3.4375V8.78731C8.8125 10.8907 9.47619 12.8945 10.7317 14.5821C11.9873 16.2696 13.7159 17.4811 15.7306 18.0854C15.8185 18.1118 15.9092 18.125 16 18.125C16.0908 18.125 16.1815 18.1118 16.2694 18.0854C18.2841 17.4811 20.0127 16.2696 21.2682 14.5821C22.5238 12.8945 23.1875 10.8907 23.1875 8.78731V3.4375C23.1875 2.91975 22.7677 2.5 22.25 2.5ZM19.3146 7.95762L15.7791 11.4931C15.596 11.6762 15.3561 11.7677 15.1162 11.7677C14.8763 11.7677 14.6363 11.6762 14.4533 11.4931L12.6856 9.72538C12.3194 9.35925 12.3194 8.76569 12.6856 8.39956C13.0516 8.03344 13.6453 8.03344 14.0114 8.39956L15.1163 9.50438L17.9889 6.63181C18.3549 6.26569 18.9486 6.26569 19.3147 6.63181C19.6807 6.99794 19.6807 7.5915 19.3146 7.95762Z" fill="#FF8B17"/>
<path d="M29.2713 22.6146C28.2836 23.5867 26.9295 24.1875 25.4375 24.1875C23.9431 24.1875 22.5871 23.5848 21.599 22.6099C21.0745 22.9878 20.6077 23.441 20.2155 23.9552L20.7306 24.4064C22.292 25.7739 23.1875 27.7444 23.1875 29.8125V32H31.0625C31.5803 32 32 31.5803 32 31.0625V27.9375C32 25.749 30.923 23.8076 29.2713 22.6146Z" fill="#FF8B17"/>
<path d="M2.72875 22.6146C1.07706 23.8076 0 25.749 0 27.9375V31.0625C0 31.5803 0.41975 32 0.9375 32H8.8125V29.8125C8.8125 27.7444 9.708 25.7739 11.2694 24.4064L11.7845 23.9552C11.3923 23.441 10.9255 22.9878 10.401 22.6099C9.41294 23.5848 8.05688 24.1875 6.5625 24.1875C5.0705 24.1875 3.71644 23.5867 2.72875 22.6146Z" fill="#FF8B17"/>
<path d="M19.4953 25.8169C18.613 26.7375 17.3728 27.3125 16 27.3125C14.6272 27.3125 13.387 26.7375 12.5048 25.8169C11.3921 26.7914 10.6875 28.2208 10.6875 29.8125V32H21.3125V29.8125C21.3125 28.2208 20.6079 26.7914 19.4953 25.8169Z" fill="#FF8B17"/>
<path d="M16 25.4375C14.363 25.4375 13.0312 24.1058 13.0312 22.4688C13.0312 20.8318 14.363 19.5 16 19.5C17.637 19.5 18.9688 20.8318 18.9688 22.4688C18.9688 24.1058 17.637 25.4375 16 25.4375Z" fill="#FF8B17"/>
</svg>
